# xmcd
#
# Track frame offsets:
#	150
#	23153
#	48380
#	66245
#	83095
#	104510
#	126917
#	139316
#	154788
#	177269
#	193374
#	217029
#	241604
#	269535
#	286281
#	299427
#	309972
#	326395
#	340432
#
# Disc length: 4731 seconds
#
# Revision: 2
# Processed by: cddbd v1.5.2PL0 Copyright (c) Steve Scherf et al.
# Submitted via: EasyCDDAExtractor 11.1.0.1
#
DISCID=27127913
DTITLE=Various Artist - Bluesfest
DYEAR=2004
DGENRE=Blues
TTITLE0=James Brown - (Get Up I Feel Like Being A) Sex Machine
TTITLE1=The Cat Empire - The Chariot
TTITLE2=The John Butler Trio - Zebra
TTITLE3=The Waifs - London Still
TTITLE4=Lucinda Williams - Car Wheels On A Gravel Road
TTITLE5=Jackson Brown - Running On Empty
TTITLE6=Solomon Burke - Everybody Needs Somebody To Love
TTITLE7=Burning Spear - Marcus Garvey
TTITLE8=The String Cheese Incident - Sirens
TTITLE9=Toots And The Maytals With Ben Harper - Love Gonna Walk Out On Me
TTITLE10=Steve Earle - Taneytown
TTITLE11=Max Merritt And The Meteors - Slipping Away
TTITLE12=Femi Kuti - Do Your Best
TTITLE13=Michael Franti - Love'll Set Me Free
TTITLE14=Dr John - Right Place Wrong Ti me
TTITLE15=Beau Young - Jesus And Buddah
TTITLE16=Luka Bloom - Can't Help Falling In Love
TTITLE17=Taj Mahal - Fishin' Blues
TTITLE18=Fun Lovin' Criminals - The Fun Lovin' Criminal
EXTD=
EXTT0=
EXTT1=
EXTT2=
EXTT3=
EXTT4=
EXTT5=
EXTT6=
EXTT7=
EXTT8=
EXTT9=
EXTT10=
EXTT11=
EXTT12=
EXTT13=
EXTT14=
EXTT15=
EXTT16=
EXTT17=
EXTT18=
PLAYORDER=
